<svg xmlns="http://www.w3.org/2000/svg" width="16" height="16" viewBox="0 0 16 16"><path fill="#99a0a7" d="M15.448 1.655H12.69V.552A.554.554 0 0 0 12.138 0h-1.93a.553.553 0 0 0-.553.552v1.103h-3.31V.552A.553.553 0 0 0 5.793 0h-1.93a.555.555 0 0 0-.553.552v1.103H.552A.553.553 0 0 0 0 2.207v12.69c0 .303.248.55.552.55h14.896a.552.552 0 0 0 .552-.55V2.207a.553.553 0 0 0-.552-.552zm-4.69-.552h.828V3.31h-.827V1.103zm-6.344 0h.827V3.31h-.824V1.103zM3.31 2.76v1.1c0 .304.25.552.552.552h1.93a.553.553 0 0 0 .553-.552v-1.1h3.31v1.1c0 .304.248.552.552.552h1.93a.554.554 0 0 0 .553-.552v-1.1h2.207v2.757H1.103V2.76H3.31zM1.103 14.344V6.62h13.794v7.725H1.103z"/></svg>