<?xml version="1.0" encoding="UTF-8"?><!DOCTYPE svg PUBLIC "-//W3C//DTD SVG 1.1//EN" "http://www.w3.org/Graphics/SVG/1.1/DTD/svg11.dtd"><svg xmlns="http://www.w3.org/2000/svg"><symbol id="algorithm" viewBox="0 0 59 51.5"><style>.st0,.st1{fill:none;stroke:#bcc0c4;stroke-width:2;stroke-miterlimit:10}.st1{stroke:#bc9f62}</style><path fill="#ffecc7" d="M19 31h15v3l11-8-11-8v3H19"/><path class="st1" d="M17 31h17v3l11-8-11-8v3H19m10 5h2m-6 0h2m-2-10h2m-2 20h2"/><path class="st0" d="M33 50.5c-6.4 0-12.2-2.4-16.6-6.3M37.6 1C49.2 3.1 58 13.3 58 25.5m-1.3 9.2c-2.1 5.4-6 10-11 12.9"/><path class="st0" d="M18.4 11.2c3.7-3.4 8.5-5.4 13.9-5.4 11.3 0 20.5 9.2 20.5 20.5 0 8.8-5.6 16.3-13.4 19.2"/><path class="st1" d="M17 21h-2M0 15h5l6 6h2M0 26h23M0 37h4l6-6h7m6 5h-8L5 46H0m23-30h-8L7 8H0"/></symbol><symbol id="control" viewBox="0 0 58 54.4"><style>.st0{fill:none;stroke:#bcc0c4;stroke-width:2;stroke-miterlimit:10}</style><path d="M29 6h14.1c.6 4 3.9 6.6 7.9 7.2v20.2c0 10.8-19.2 20.1-22 20.1-2.8 0-22-9.3-22-20.1V13.2c4-.6 7.3-3.2 7.9-7.2H29z" fill="#fff" stroke="#bc9f62" stroke-width="2" stroke-miterlimit="10"/><path class="st0" d="M57 24v9.3c0 6.8-4.4 13.3-12.8 19.2M36 1h8M14 1h8m-8.2 51.6C5.4 46.7 1 40.1 1 33.3V24"/><path d="M42.7 28.4c0 8.1-6.5 14.6-14.6 14.6s-14.6-6.5-14.6-14.6S20 13.8 28.1 13.8c1.8 0 3.6.3 5.2 1" fill="none" stroke="#bc9f62" stroke-width="2" stroke-miterlimit="10"/><path fill="#ffecc7" stroke="#bc9f62" stroke-width="2" stroke-miterlimit="10" d="M42.2 13.9L29 27l-5.5-5.4-4.4 4.4 9.9 9.8 17.6-17.5z"/><path class="st0" d="M57 12v2m0 2v2m0 2v2M1 12v2m0 2v2m0 2v2M28 1h2m-6 0h2m6 0h2"/></symbol><symbol id="deadlines" viewBox="0 0 56 45.5"><style>.st3{fill:#fff}.st7{fill:#e9eaeb}.st8{fill:#bc9f62}</style><path d="M.9 8.8h54.3v32.4H.9z" class="st3"/><path fill="#ffecc7" stroke="#bc9f62" stroke-miterlimit="10" stroke-width="2" d="M18.4 21.9h7v5.3h-7z"/><path d="M.9 41.1h54.3v3.5H.9z" class="st7"/><path d="M42.9 13.1h7v5.3h-7z" class="st3"/><path d="M.9.9h54.3v7H.9z" class="st7"/><path d="M6.1 21.9h7v5.3h-7zm24.5 8.7h7v5.3h-7z" class="st3"/><path d="M56 45.5H0v-4.4h1.8v2.7h52.5v-2.7H56z" class="st8"/><path d="M0 7.9h1.8v33.3H0zm54.3 0h1.8v33.3h-1.8zm-28 11.4h-8.8v-7h8.8v7zm-7-1.8h5.3V14h-5.3v3.5zm19.2 1.8h-8.8v-7h8.8v7zm-7-1.8h5.3V14h-5.3v3.5zm19.3 1.8H42v-7h8.8v7zm-7-1.8H49V14h-5.3v3.5zM14 28H5.3v-7H14v7zm-7-1.7h5.3v-3.5H7v3.5zM26.3 28h-8.8v-7h8.8v7zm-7-1.7h5.3v-3.5h-5.3v3.5zM38.5 28h-8.8v-7h8.8v7zm-7-1.7h5.3v-3.5h-5.3v3.5zM50.8 28H42v-7h8.8v7zm-7-1.7H49v-3.5h-5.3v3.5zM14 36.8H5.3v-7H14v7zM7 35h5.3v-3.5H7V35zm19.3 1.8h-8.8v-7h8.8v7zm-7-1.8h5.3v-3.5h-5.3V35zm19.2 1.8h-8.8v-7h8.8v7zm-7-1.8h5.3v-3.5h-5.3V35z" class="st8"/><path d="M56 8.8H0V0h56v8.8zM1.8 7h52.5V1.8H1.8V7z" class="st8"/><path d="M29.8 3.5h1.8v1.8h-1.8zm3.5 0h1.8v1.8h-1.8zm3.5 0h1.8v1.8h-1.8zm-19.3 0h1.8v1.8h-1.8zm3.5 0h1.8v1.8H21zm3.5 0h1.8v1.8h-1.8z" class="st8"/></symbol><symbol id="ico-bullet" viewBox="0 0 20 25.5"><style/><path d="M9.7 0C4.7.2.5 4.1 0 9c0 1 0 2 .2 2.9 0 0 0 .1.1.3.2.7.4 1.4.7 2 1.1 2.7 3.6 6.7 9 11.2.1 0 .1.1.1.1s.1 0 .1-.1c5.4-4.5 7.8-8.5 8.9-11.2.3-.7.5-1.3.7-2 0-.2.1-.3.1-.3.1-.6.1-1.2.1-1.9C20 4.4 15.4-.2 9.7 0zm.3 14.7c-2.5 0-4.5-2-4.5-4.5s2-4.5 4.5-4.5 4.5 2 4.5 4.5c0 2.4-2 4.5-4.5 4.5z"/></symbol><symbol id="keys" viewBox="0 0 55.7 60"><style>.st1{fill:none;stroke:#bc9f62;stroke-width:2;stroke-miterlimit:10}</style><path fill="#fff" d="M30.2 9.6c-2 .3-4.5 1.7-6.3 3.4-3.3 3.3-4.5 8.1-3.4 12.3l-5.1 5.1v3.9l-.5.7H11l-1.6 1.9v3.9l-1 .2H4.6l-3.2 3.7L5.2 49h6.5l15.2-15.5c1.9 1 4 1.4 6.1 1.4 7.1 0 13.5-9 11.5-17-2.1-7.9-9.3-9.6-14.3-8.3z"/><path d="M30.2 9.6c-2.3.5-4.5 1.7-6.3 3.4-3.3 3.3-4.5 8.1-3.4 12.3l-5.1 5.1v3.9l-.5.7H11l-1.6 1.9v3.9l-1 .2H4.6l-3.2 3.7L5.2 49h6.5l15.2-15.5c1.9 1 4 1.4 6.1 1.4m-8.4-4.5L9.7 45.3" class="st1"/><path fill="#ffecc7" stroke="#bc9f62" stroke-miterlimit="10" stroke-width="2" d="M35.4 59h5.7l4.3-5V32.5c6-1.6 9.3-6.5 9.3-12.2 0-7.1-5.6-12.8-12.7-12.8s-12.9 5.7-12.9 12.8c0 4.7 3.3 8.8 6.3 11.1V39l2 2v2l-2 2.9v1.7l2 2.4v2l-2 2v5z"/><path d="M41.4 36v17m0-19v-2m-20-20c0-6.1 4.9-11 11-11s11 4.9 11 11c0 1.6-.4 3.2-1 4.6" class="st1"/><circle cx="42.4" cy="16" r="4" fill="#fff" stroke="#bc9f62" stroke-miterlimit="10" stroke-width="2"/></symbol><symbol id="solution" viewBox="0 0 60 57"><style>.st1{fill:none}.st1,.st2,.st6{stroke:#bc9f62;stroke-width:2;stroke-miterlimit:10}.st2{fill:#ffecc7}.st6{fill:#e9eaeb;stroke-linejoin:round}</style><path fill="#fff" d="M2 13h56v32H2z"/><path class="st1" d="M49 56h2l4-2.5-4-2.5h-2"/><path class="st2" d="M50 51H13v5h37"/><path class="st1" d="M49 56v-5m-37 0h-2c-1.1 0-2 .9-2 2v1c0 1.1.9 2 2 2h2"/><path class="st6" d="M7 39c0-.7-1.3-1-2-1-2.2 0-4 1.8-4 4V12c0-2.2 1.8-4 4-4 .7 0 2 .2 2 1v30z"/><path class="st1" d="M33 13H7m46 0h-5m11 29c0 2.2-1.8 4-4 4H5c-2.2 0-4-1.8-4-4"/><path class="st6" d="M53 39c0-.7 1.3-1 2-1 2.2 0 4 1.8 4 4V12c0-2.2-1.8-4-4-4-.7 0-2 .2-2 1v30z"/><path class="st2" d="M11 34.9V36h36V1h-1.1L11 34.9z"/><path class="st1" d="M41 33v3m-5-3v3m-5-3v3m-5-3v3m-5-3v3"/><path fill="#fff" stroke="#bc9f62" stroke-width="2" stroke-miterlimit="10" d="M40 15h1v14H27v-1z"/></symbol><symbol id="specialization" viewBox="0 0 60 55.7"><style>.st1{fill:none;stroke:#bc9f62;stroke-width:2;stroke-miterlimit:10}</style><path d="M13 25.7H0m47 0h13m-51-4l4 4-4 4m42-8l-4 4 4 4M17.9 13.6L8 3.7m3.9 10h6v-6m24.2 5.9L52 3.7m-3.9 10h-6v-6m1 31.1l8.9 8.9m-3-9h-6v6m-26.1-5.9L8 47.7m3-9h6v6" class="st1"/><path fill="#fff" stroke="#bc9f62" stroke-miterlimit="10" stroke-width="2" d="M30 12.4c2.7 0 5-2.2 5-4.9V5.9C35 3.2 32.7 1 30 1s-5 2.2-5 4.9v1.6c0 2.7 2.3 4.9 5 4.9z"/><path fill="#ffecc7" d="M34 15.7h-8c-3.1 0-7 2.8-7 7v9c0 2.2 2.5 5 4.8 5h.2v19h12v-19c2.2-.2 5-2.8 5-5v-9c0-4.2-3.9-7-7-7z"/><path d="M35.8 36.7c2.2 0 5.3-2.8 5.3-5v-9c0-4.2-3.9-7-7-7h-8c-3.1 0-7 2.8-7 7v9c0 2.2 2.5 5 4.8 5m12.1 19v-33m-12 0v33m6 0v-19" class="st1"/></symbol><symbol id="team" viewBox="0 0 58 55.9"><style>.st1,.st5{fill:none;stroke:#bc9f62;stroke-width:2;stroke-miterlimit:10}.st5{fill:#fff}</style><path fill="#fff" d="M46 19.9H12c-3.7 0-11 2-11 5.9v12.1c0 2.3 1.7 4 4 4h1v14h46v-14h1c2.3 0 4-1.7 4-4V25.8c0-3.9-7.3-5.9-11-5.9z"/><path fill="#ffecc7" d="M29 15.9c-3.7 0-11 2-11 6V34c0 2.3 1.7 3.9 4 3.9h1v18h12v-18h1c2.3 0 4-1.6 4-3.9V21.9c0-3.9-7.3-6-11-6z"/><path d="M36 38c2.3 0 4-1.7 4-4V21.9c0-4-7.3-6-11-6s-11 2-11 6V34c0 2.3 1.7 4 4 4" class="st1"/><path d="M29 12.9c2.8 0 5-2.3 5-5.1V6.1C34 3.3 31.8 1 29 1s-5 2.3-5 5.1v1.7c0 2.8 2.2 5.1 5 5.1z" class="st5"/><path d="M53 42c2.3 0 4-1.7 4-4V25.8c0-4-7.3-5.9-11-5.9h-4m10 36v-26" class="st1"/><path d="M46 16.8c2.8 0 5-2.3 5-5.1V10c0-2.8-2.2-5.1-5-5.1s-5 2.3-5 5.1v1.7c0 2.8 2.2 5.1 5 5.1z" class="st5"/><path d="M5 42c-2.3 0-4-1.7-4-4V25.8c0-4 7.3-5.9 11-5.9h4m-10 36v-26" class="st1"/><path d="M12 16.8c-2.8 0-5-2.3-5-5.1V10c0-2.8 2.2-5.1 5-5.1s5 2.3 5 5.1v1.7c0 2.8-2.2 5.1-5 5.1z" class="st5"/><path d="M35 55.9v-30m-12 0v30m6-19v19" class="st1"/></symbol><symbol id="technology" viewBox="0 0 61 58.1"><style>.st0{stroke:#bcc0c4;stroke-width:2;stroke-miterlimit:10}.st0,.st1{fill:none}.st1,.st2{stroke-width:2;stroke-miterlimit:10}.st1,.st2{stroke:#bc9f62}.st2{fill:#ffecc7}</style><path class="st0" d="M9.7 11.1C14.8 4.9 22.5 1 31.2 1 46.6 1 59 13.5 59 28.9c0 2.1-.2 4.2-.7 6.2m-54.5-1c-.3-1.7-.5-3.4-.5-5.2 0-2 .2-3.9.6-5.8m8.1 26c-1.3-1.2-2.5-2.6-3.5-4M53 46.2c-1.2 1.5-2.5 2.9-4 4.1"/><path class="st1" d="M27 40.1H6m38-11H32.2c-1.1 0-2.5-.6-3.1-1.5l-6.4-10.1c-.6-.9-1.9-1.5-3-1.5H5m12 37.1h12.3c1.1 0 2.5-.6 3.1-1.5l6.4-9.6c.6-.9 1.9-1 3-1H56M34 18.1h10m2 0h2m2 0h2m-28 39h2m2 0h2m2 0h2m-22-21h2m2 0h2m2 0h2m17 1h2m2 0h2m2 0h2m-35-25h2m2 0h2m2 0h2"/><circle class="st2" cx="17" cy="53.1" r="4"/><circle class="st2" cx="43" cy="53.1" r="4"/><circle class="st2" cx="56" cy="41.1" r="4"/><circle class="st2" cx="28" cy="40.1" r="4"/><circle class="st2" cx="18" cy="28.1" r="4"/><circle class="st2" cx="44" cy="29.1" r="4"/><circle class="st2" cx="33" cy="18.1" r="4"/><circle class="st2" cx="5" cy="16.1" r="4"/><circle class="st2" cx="5" cy="40.1" r="4"/></symbol></svg>