<?xml version="1.0" encoding="UTF-8"?><!DOCTYPE svg PUBLIC "-//W3C//DTD SVG 1.1//EN" "http://www.w3.org/Graphics/SVG/1.1/DTD/svg11.dtd"><svg xmlns="http://www.w3.org/2000/svg"><defs><clipPath id="a"><path fill="#fff" transform="translate(203.251 2.75)" d="M0 0h62.749v21.826H0z"/></clipPath></defs><symbol id="arrow" viewBox="0 0 22 16"><path d="M20.087 7a1 1 0 1 1 0 2V7zM.999 8l-.701.713a1 1 0 0 1 0-1.426L.999 8zM7.414.287a1 1 0 1 1 1.402 1.426L7.414.287zm1.402 14a1 1 0 0 1-1.402 1.426l1.402-1.426zM20.086 9H1V7h19.088v2zM8.817 1.713l-7.115 7L.298 7.287l7.116-7 1.402 1.426zM1.701 7.287l7.115 7-1.402 1.426-7.116-7 1.403-1.426z"/></symbol><symbol id="payments" viewBox="0 0 266 27"><g clip-path="url(#a)" fill="#BDBDBD"><path d="M258.288 17.564l-1.437-1.618-1.613 1.438 1.437 1.618 1.613-1.438zm-4.172-2.913l1.437 1.618 1.578-1.438-1.402-1.618-1.613 1.438zm5.294 5.681l-1.438-1.617-1.577 1.474 1.402 1.582 1.613-1.439z"/><path d="M257.762 22.994l-2.629-2.949.736-.647-1.823-2.086.736-.647-1.858-2.085 2.91-2.661.946 1.007 1.578-1.403.911.971.596-.54-.42-.215a6.672 6.672 0 0 0-2.91-.683c-3.681 0-6.66 3.056-6.66 6.76 0 3.74 2.979 6.76 6.66 6.76a6.83 6.83 0 0 0 3.295-.863c.316-.18.596-.396.877-.612l-1.333-1.546-1.612 1.439z"/><path d="M257.026 13.86l1.087 1.223 1.191-1.079-1.086-1.222-1.192 1.079zm3.365 2.553l-1.087-1.186-1.156 1.078 1.051 1.187 1.192-1.079zm1.017 2.553l-1.087-1.222-1.157 1.079 1.052 1.222 1.192-1.079zm.07-3.99l-.806.718.701.827.806-.755-.701-.79zm.21 3.127l.701.791.807-.719-.737-.79-.771.718zm-2.033-4.782l.701.791.806-.719-.701-.827-.806.755zm.526 7.946l1.087 1.223 1.191-1.079-1.086-1.222-1.192 1.078zm-49.358-2.732h-.035l-1.192-4.675h-.771l-1.122 4.675h-.035l-.981-4.675h-.947l1.402 6.257h.912l1.122-4.387h.07l1.157 4.387h.911l1.402-6.257H211.7l-.877 4.675zm4.137-2.985c-1.297 0-1.928.971-1.928 2.302 0 1.402.596 2.3 2.033 2.3.631 0 1.122-.179 1.507-.395v-.683c-.455.288-.911.468-1.367.468-.876 0-1.297-.468-1.297-1.51h2.769v-.324c0-1.438-.666-2.157-1.717-2.157zm-1.052 1.906c.105-.863.491-1.294 1.017-1.294.455 0 .911.36.946 1.294h-1.963zm5.924-1.834c-.455 0-.911.18-1.156.324v-2.517l-.877.216v6.148a3.868 3.868 0 0 0 1.648.432c1.227 0 1.998-.791 1.998-2.445 0-1.402-.561-2.158-1.613-2.158zm-.385 3.991c-.211 0-.526-.035-.771-.143v-2.877c.35-.18.596-.288.946-.288.561 0 .982.36.982 1.475-.035 1.438-.526 1.833-1.157 1.833zm5.889-.826h-.035l-1.928-4.926h-1.017v6.256h.772v-4.423h.07l1.752 4.423h.526l1.753-4.53h.07v4.53h.912V13.86h-1.052l-1.823 4.927zm5.609-3.236c-1.122 0-1.928.754-1.928 2.3 0 1.51.771 2.302 1.928 2.302s1.963-.791 1.963-2.301c-.035-1.51-.841-2.302-1.963-2.302zm0 3.99c-.596 0-1.052-.467-1.052-1.69 0-1.186.491-1.69 1.052-1.69.596 0 1.052.504 1.052 1.69 0 1.223-.456 1.69-1.052 1.69zm4.802-3.99c-.981 0-1.787.43-2.173.647v3.847h.876v-3.488c.281-.144.702-.323 1.052-.323.421 0 .771.107.771.827v2.984h.877v-3.2c0-.863-.386-1.294-1.403-1.294zm4.312 0c-1.297 0-1.928.97-1.928 2.3 0 1.403.596 2.302 2.033 2.302a3.02 3.02 0 0 0 1.508-.396v-.683c-.456.288-.912.468-1.367.468-.877 0-1.297-.468-1.297-1.51h2.769v-.324c0-1.438-.631-2.157-1.718-2.157zm-1.051 1.905c.105-.863.49-1.294 1.016-1.294.456 0 .912.36.947 1.294h-1.963zm5.363 1.33h-.035l-1.087-3.236h-.946l1.647 4.387c-.21.647-.561 1.115-1.156 1.115v.719c.981 0 1.507-.647 1.928-1.834l1.542-4.387h-.947l-.946 3.236zm-4.137-13.663c-.315 0-.595.108-.806.36-.21.251-.315.61-.315 1.114 0 .504.105.863.315 1.115.211.252.491.36.806.36.316 0 .596-.108.807-.36.21-.252.315-.647.315-1.15 0-.468-.105-.864-.315-1.115a1.098 1.098 0 0 0-.807-.324zm4.908 1.15c.105-.035.211-.071.281-.18.07-.071.105-.179.105-.323 0-.215-.07-.36-.211-.431-.14-.072-.385-.108-.736-.108h-.701v1.115h.701c.281-.036.456-.072.561-.072zm.14.612c-.14-.036-.315-.036-.595-.036h-.772v1.187h.842c.35 0 .631-.036.771-.144.14-.072.21-.252.21-.468a.708.708 0 0 0-.105-.36c-.105-.071-.21-.143-.351-.18zm-30.112.108c-.105.036-.21.108-.245.216a.59.59 0 0 0-.105.323c0 .18.07.324.21.432.14.107.315.18.561.18.245 0 .455-.073.666-.18.21-.108.35-.252.42-.468.071-.144.106-.36.106-.647v-.252c-.246.108-.596.18-1.052.252-.245.036-.421.072-.561.144zm12.69-1.87c-.28 0-.561.108-.736.324a1.483 1.483 0 0 0-.351.827h2.139c-.035-.324-.105-.576-.246-.755-.21-.288-.455-.396-.806-.396z"/><path d="M203.251 2.75v7.55H266V2.75h-62.749zm13.742 5.825a1.816 1.816 0 0 1-.14-.467c-.246.215-.456.36-.701.431-.246.072-.456.144-.702.144-.42 0-.736-.108-.981-.324a.98.98 0 0 1-.351-.79c0-.18.035-.36.141-.54.07-.144.21-.288.35-.396.14-.108.281-.18.456-.215.14-.036.315-.072.561-.108.526-.072.911-.144 1.157-.216v-.18c0-.287-.071-.467-.176-.575-.14-.144-.385-.216-.736-.216-.315 0-.526.072-.666.18s-.245.288-.315.575l-.631-.072c.07-.287.14-.503.28-.683.14-.18.315-.288.561-.395.28-.108.561-.18.876-.18.316 0 .596.036.807.108.21.072.35.18.455.287.105.108.176.288.211.468.035.108.035.323.035.611v.899c0 .611 0 1.007.035 1.187.035.18.07.323.175.467h-.701zm4.522-3.38h-1.227v3.38h-.631v-3.38h-1.227v-.54h3.12v.54h-.035zm3.786 0h-1.227v3.38h-.631v-3.38h-1.227v-.54h3.12v.54h-.035zm4.312 1.582h-2.875c.035.432.14.755.351 1.007.21.252.49.36.806.36a.986.986 0 0 0 .596-.18c.175-.144.315-.324.386-.612l.666.072c-.106.396-.316.72-.596.935-.281.216-.666.324-1.087.324-.561 0-1.017-.18-1.332-.54-.316-.36-.491-.862-.491-1.474 0-.647.175-1.186.491-1.546.315-.36.806-.575 1.332-.575s.911.18 1.262.54c.315.359.491.862.491 1.51v.18zm3.821 1.51a1.53 1.53 0 0 1-1.052.396c-.526 0-.946-.18-1.262-.54-.315-.36-.491-.862-.491-1.51 0-.431.07-.79.211-1.114.14-.324.35-.54.631-.72.28-.143.56-.251.911-.251.421 0 .771.108 1.017.323.245.216.42.504.49.935l-.631.108c-.07-.252-.175-.467-.315-.611a.785.785 0 0 0-.561-.216c-.315 0-.596.108-.806.36-.175.251-.281.647-.281 1.15 0 .54.106.9.281 1.151.175.252.455.36.771.36a.834.834 0 0 0 .631-.252c.175-.144.28-.396.315-.755l.631.072c-.035.503-.21.863-.49 1.114zm4.276-3.092h-1.226v3.38h-.631v-3.38h-1.227v-.54h3.119v.54h-.035zm4.102 2.553a1.67 1.67 0 0 1-.631.683c-.281.144-.596.252-.912.252-.525 0-.981-.18-1.297-.54-.315-.36-.49-.862-.49-1.51 0-.719.21-1.258.596-1.618.315-.287.736-.431 1.191-.431.526 0 .947.18 1.297.54.351.359.491.826.491 1.473-.035.468-.105.863-.245 1.151zm4.171.54c-.245.18-.56.251-1.016.251h-1.718V4.656h1.508c.35 0 .631.036.806.108.175.071.315.18.456.36.14.179.175.359.175.61 0 .18-.035.36-.105.504-.07.144-.176.251-.351.36.175.071.316.18.456.359.105.18.175.36.175.611-.035.288-.14.54-.386.72zm4.137.287a1.816 1.816 0 0 1-.14-.467c-.246.215-.456.36-.701.431-.246.072-.456.144-.701.144-.421 0-.737-.108-.982-.324a.983.983 0 0 1-.351-.79c0-.18.035-.36.141-.54.07-.144.21-.288.35-.396.14-.108.281-.18.456-.215.14-.036.315-.072.561-.108.526-.072.911-.144 1.157-.216v-.18c0-.287-.07-.467-.176-.575-.175-.144-.42-.216-.736-.216-.315 0-.526.072-.666.18s-.245.288-.315.575l-.631-.072c.07-.287.14-.503.28-.683.14-.18.316-.288.561-.395.245-.108.526-.144.876-.144.316 0 .596.036.807.108.21.072.35.18.455.287.106.108.176.288.211.468.035.108.035.323.035.611v.899c0 .611 0 1.007.035 1.186.035.18.07.324.175.468h-.701v-.036zm5.013 0h-.631V6.849h-1.788v1.726h-.631v-3.92h.631v1.619h1.788V4.656h.631v3.919z"/><path d="M248.332 6.993c-.105.036-.21.108-.245.215a.59.59 0 0 0-.105.324c0 .18.07.324.21.432.14.107.316.18.561.18.245 0 .456-.073.666-.18.21-.108.35-.252.421-.468.07-.144.105-.36.105-.647v-.252c-.246.108-.596.18-1.052.252-.28.036-.456.072-.561.144z"/></g><path d="M123.507 7.032h-2.716c-.821 0-1.452.253-1.831 1.074l-5.179 11.811h3.663s.632-1.579.758-1.958h4.484c.127.442.442 1.895.442 1.895h3.285l-2.906-12.822zm-4.295 8.274c.316-.757 1.39-3.6 1.39-3.6 0 .063.316-.758.442-1.2l.253 1.137s.695 3.095.821 3.727h-2.906v-.064zM114.033 15.686c0 2.652-2.4 4.421-6.127 4.421-1.579 0-3.094-.316-3.916-.695l.506-2.905.442.19c1.137.505 1.895.694 3.284.694 1.011 0 2.085-.379 2.085-1.263 0-.569-.442-.948-1.832-1.58-1.326-.63-3.095-1.642-3.095-3.473 0-2.527 2.463-4.232 5.937-4.232 1.327 0 2.464.253 3.158.568l-.505 2.78-.253-.253a6.78 6.78 0 0 0-2.652-.505c-1.327.063-1.958.631-1.958 1.137 0 .568.758 1.01 1.958 1.579 2.021.947 2.968 2.02 2.968 3.537zM83.21 7.16l.063-.254h5.432c.758 0 1.327.253 1.516 1.074l1.2 5.685c-1.2-3.032-3.979-5.495-8.21-6.506z" fill="#BDBDBD"/><path d="M99.064 7.032l-5.495 12.822h-3.727L86.684 9.117c2.274 1.452 4.169 3.726 4.864 5.305l.379 1.327 3.41-8.78h3.727v.063zM100.517 6.97h3.473l-2.21 12.884h-3.474l2.211-12.885zM16.801 12.591l-2.842-3.095-3.158 2.78 2.842 3.157 3.158-2.842zM8.527 6.97l2.842 3.095 3.158-2.78-2.842-3.094L8.527 6.97zM19.012 17.96l-2.843-3.095-3.158 2.842 2.843 3.095 3.158-2.842z" fill="#BDBDBD"/><path d="M15.727 23.14l-5.179-5.749 1.453-1.263-3.664-4.042 1.453-1.263L6.127 6.78l5.747-5.116 1.832 1.958L16.864.906l1.832 1.895 1.2-1.074c-.253-.126-.569-.315-.821-.442C17.243.527 15.285.022 13.2.022 5.937.022 0 5.896 0 13.096s5.937 13.075 13.264 13.075c2.4 0 4.61-.632 6.506-1.706.631-.378 1.2-.757 1.768-1.136l-2.653-2.969-3.158 2.78z" fill="#BDBDBD"/><path d="M14.338 5.454l2.084 2.337 2.4-2.084-2.147-2.337-2.337 2.084zM20.97 10.38l-2.148-2.337-2.337 2.148 2.148 2.274 2.337-2.085zM22.99 15.307l-2.147-2.337-2.337 2.084 2.148 2.4 2.337-2.147zM23.117 7.601l-1.579 1.39 1.453 1.579 1.516-1.39-1.39-1.579zM23.56 13.602l1.389 1.579 1.579-1.39-1.453-1.579-1.516 1.39zM19.517 4.38l1.453 1.58 1.515-1.39-1.389-1.58-1.58 1.39zM20.59 19.792l2.148 2.336 2.337-2.084-2.147-2.337-2.337 2.085zM67.409 9.464c-.128-.774-.834-1.29-1.797-1.29h-.898c-.578-.065-.706.129-.706.58v6.713c0 1.161-1.155 2.388-2.502 2.646-4.235.968-8.47 1.872-12.706 2.84-.449.129-.962.129-1.475.129-.193 0-.514-.13-.578-.323-.064-.129.129-.387.257-.516.192-.13.45-.258.706-.387.77-.259 1.604-.517 2.374-.775 3.144-1.033 6.288-2.065 9.432-3.162 1.412-.452 2.182-1.42 2.182-2.647.064-3.872 0-7.81 0-11.682 0-.645-.32-1.162-1.027-1.42-.834-.322-1.604-.064-2.31.258-4.491 2.13-8.919 4.26-13.41 6.39-1.284.646-2.054 1.55-2.054 2.84v11.037c0 .193 0 .387.064.516.45 1.226 1.605 2 3.145 2h18.8c.706 0 1.284-.128 1.797-.58.642-.517.642-1.227.642-1.872V9.981c.128-.065.128-.323.064-.517zm-13.09-1.161c.32-.84 1.027-1.356 2.053-1.485.706-.064 1.284.323 1.412.968.128.968-1.027 2.13-2.246 2.13-.962 0-1.54-.71-1.22-1.613z" fill="#BDBDBD"/><path fill-rule="evenodd" clip-rule="evenodd" d="M160.957 7.16c.213-.459.453-.901.718-1.327h-.029c-.106.21-.211.4-.312.58a7.804 7.804 0 0 0-.383.746h.006zm2.916-3.96c-2.143-1.995-5.03-3.178-8.228-3.178-6.695.19-12.253 5.558-12.253 12.317 0 6.758 5.495 12.316 12.316 12.316 3.191 0 6.011-1.24 8.212-3.166 2.186 1.964 5.068 3.166 8.21 3.166 6.822 0 12.317-5.558 12.317-12.317 0-6.758-5.495-12.316-12.38-12.316a12.158 12.158 0 0 0-8.194 3.178zm7.184 12.296l.252-1.452s-.631.316-1.137.316c-.884 0-1.326-.695-1.326-1.516 0-1.58.758-2.4 1.705-2.4.632 0 1.2.378 1.2.378l.19-1.389s-.758-.316-1.516-.316c-1.516 0-2.968 1.326-2.968 3.79 0 1.642.757 2.716 2.336 2.716.569.063 1.264-.127 1.264-.127zm-10.801-1.136l-.189 1.136c-.127.064-.443.19-.822.19-.631 0-1.073-.379-1.073-1.137 0-.505.758-4.8.758-4.8h1.326l-.126.758h.631l-.189 1.263h-.695l-.379 2.274c-.063.126 0 .379.442.379.074 0 .148-.022.21-.04a.444.444 0 0 1 .106-.023zm2.527 1.326c-1.011 0-2.274-.442-2.274-2.274 0-1.642 1.01-3.095 2.274-3.032 1.452 0 1.894 1.074 1.894 1.895 0 .38-.189 1.2-.189 1.2h-2.653s-.253 1.074 1.2 1.074c.695 0 1.39-.316 1.39-.316l-.253 1.263s-.442.19-1.389.19zm.57-3.313c.013-.16.069-.856-.57-.856-.56 0-.751.533-.837.773-.021.058-.035.1-.048.112h1.453v-.008l.002-.02zM151.35 10.57s.695-.253 1.579-.253c.442 0 1.706.063 1.706 1.642l-.506 3.6h-1.073l.063-.505c-.014 0-.044.026-.091.066-.179.149-.601.503-1.299.503-.505 0-1.263-.253-1.263-1.453 0-1.516 1.2-1.958 2.337-1.958h.568s.064-.063.064-.316c0-.379-.379-.442-.821-.442-.885 0-1.453.253-1.453.253l.189-1.137zm.948 3.916c.758 0 .884-1.074.884-1.263h-.19c-1.01 0-1.2.442-1.2.758 0 .19.127.505.506.505zm3.6 1.137h.032c.38.002 1.926.01 1.926-1.706 0-1.013-.602-1.28-1.062-1.486-.286-.127-.517-.23-.517-.472 0-.315.253-.442.695-.442.189 0 .884.064.884.064l.189-1.2s-.442-.127-1.263-.127c-.947 0-1.958.379-1.958 1.705 0 .94.632 1.25 1.112 1.483.293.144.53.26.53.475 0 .38-.442.443-.758.443-.568 0-1.2-.19-1.2-.19l-.189 1.2c.126.127.505.253 1.579.253zm25.77-4.548l.253-1.768 1.389.126-.947 6.253h-1.327l.063-.442s-.505.505-1.263.505c-1.137 0-1.642-1.074-1.642-2.147 0-1.706 1.011-3.159 2.211-3.159.758 0 1.263.632 1.263.632zm-1.453 3.285c.758 0 1.074-.948 1.074-1.643 0-.758-.253-1.073-.695-1.136-.631 0-1.074.631-1.074 1.705 0 .695.253 1.074.695 1.074zm-34.423 1.2l.758-4.674.126 4.674h.885l1.705-4.674-.695 4.674h1.39l1.073-6.253h-2.147l-1.326 3.852-.064-3.852h-1.894l-1.074 6.253h1.263zm20.388-1.086c-.053.344-.11.71-.176 1.086h-1.453l.821-5.053h1.263l-.126.694s.505-.758 1.074-.758h.252a3.838 3.838 0 0 1-.052.128c-.122.295-.28.674-.39 1.388-.781-.26-.961.897-1.213 2.515zm7.908-4.157c-.884 0-1.579.253-1.579.253l-.189 1.137s.568-.253 1.453-.253c.442 0 .821.063.821.442 0 .253-.063.316-.063.316h-.569c-1.137 0-2.337.442-2.337 1.958 0 1.2.758 1.453 1.263 1.453.698 0 1.121-.354 1.299-.503.047-.04.078-.066.091-.066l-.063.506h1.2l.505-3.6c0-1.58-1.389-1.643-1.832-1.643zm.316 2.906c0 .19-.126 1.263-.884 1.263-.379 0-.505-.316-.505-.505 0-.316.189-.758 1.2-.758h.189zm2.703 1.251v.002c-.053.344-.11.708-.176 1.084h-1.453l.821-5.053h1.263l-.126.694s.505-.758 1.074-.758h.252l-.052.128c-.122.295-.28.674-.39 1.388-.781-.26-.961.897-1.213 2.515z" fill="#BDBDBD"/></symbol><symbol id="youtube" viewBox="0 0 55 65"><path d="M54.049 32.908c-.674-2.919-3.066-5.071-5.946-5.392-6.819-.76-13.723-.763-20.594-.76-6.873-.003-13.776 0-20.597.76-2.878.322-5.27 2.474-5.942 5.392C.011 37.063 0 41.599 0 45.878s0 8.814.959 12.97c.672 2.917 3.063 5.07 5.943 5.391 6.82.76 13.722.763 20.595.76 6.874.004 13.775 0 20.596-.76 2.879-.321 5.272-2.474 5.944-5.391.958-4.156.963-8.691.963-12.97 0-4.28.007-8.815-.951-12.97zm-38.361 3.22h-3.98V57.23H8.01V36.129H4.1v-3.456h11.587v3.456zM25.73 57.231h-3.326v-1.996c-1.322 1.511-2.576 2.248-3.798 2.248-1.072 0-1.809-.433-2.142-1.36-.18-.553-.293-1.43-.293-2.721v-14.47h3.323v13.473c0 .777 0 1.18.03 1.29.08.514.333.775.778.775.667 0 1.364-.512 2.101-1.553V38.932h3.326v18.3zm12.627-5.492c0 1.692-.114 2.912-.336 3.687-.444 1.361-1.333 2.057-2.655 2.057-1.183 0-2.324-.655-3.436-2.024v1.773h-3.323v-24.56h3.323v8.02c1.074-1.318 2.213-1.984 3.436-1.984 1.322 0 2.211.694 2.655 2.064.223.736.336 1.946.336 3.679v7.288zm5.896-3.053v3.244c0 1.693.556 2.54 1.698 2.54.819 0 1.295-.444 1.485-1.33.03-.18.074-.917.074-2.247h3.391v.484c0 1.069-.04 1.805-.071 2.136a4.717 4.717 0 0 1-.776 1.986c-.92 1.33-2.284 1.985-4.02 1.985-1.74 0-3.063-.625-4.023-1.874-.705-.916-1.067-2.359-1.067-4.303v-6.41c0-1.956.32-3.387 1.027-4.311.96-1.253 2.283-1.876 3.98-1.876 1.669 0 2.99.623 3.922 1.876.696.924 1.029 2.355 1.029 4.311v3.789h-6.649z" fill="#fff"/><path d="M45.923 41.693c-1.111 0-1.668.847-1.668 2.538v1.694h3.323V44.23c0-1.691-.556-2.538-1.655-2.538zM33.588 41.693c-.547 0-1.102.258-1.658.807v11.153c.555.555 1.11.817 1.658.817.959 0 1.446-.817 1.446-2.47v-7.81c0-1.65-.487-2.497-1.446-2.497zM35.445 25.07c1.225 0 2.5-.743 3.837-2.271v2.017h3.36V6.322h-3.36v14.135c-.744 1.05-1.45 1.568-2.122 1.568-.45 0-.714-.265-.787-.784-.041-.11-.041-.518-.041-1.303V6.322h-3.349v14.624c0 1.306.112 2.19.298 2.75.337.936 1.083 1.374 2.164 1.374zM12.06 14.765v10.051h3.725v-10.05L20.265 0H16.5l-2.541 9.745L11.313 0h-3.92c.786 2.3 1.603 4.612 2.388 6.915 1.195 3.46 1.941 6.07 2.279 7.85zM25.258 25.07c1.683 0 2.99-.632 3.918-1.893.705-.926 1.043-2.384 1.043-4.35v-6.475c0-1.977-.337-3.422-1.043-4.356-.927-1.266-2.234-1.897-3.918-1.897-1.674 0-2.981.631-3.91 1.897-.714.934-1.052 2.379-1.052 4.356v6.476c0 1.965.338 3.423 1.051 4.349.93 1.261 2.237 1.893 3.911 1.893zm-1.603-13.39c0-1.711.52-2.564 1.603-2.564s1.602.852 1.602 2.564v7.78c0 1.71-.519 2.566-1.602 2.566-1.083 0-1.603-.856-1.603-2.567V11.68z" fill="#fff"/></symbol></svg>